<?xml version="1.0" encoding="UTF-8"?>
<svg width="520px" height="212px" viewBox="0 0 520 212" version="1.1" xmlns="http://www.w3.org/2000/svg" xmlns:xlink="http://www.w3.org/1999/xlink">
    <!-- Generator: Sketch 41.2 (35397) - http://www.bohemiancoding.com/sketch -->
    <title>ats_secured_logo2016</title>
    <desc>Created with Sketch.</desc>
    <defs>
        <polygon id="path-1" points="0.06 0.431 0.06 22.649 89.667 22.649 89.667 0.431"></polygon>
    </defs>
    <g id="Page-1" stroke="none" stroke-width="1" fill="none" fill-rule="evenodd">
        <g id="ats_secured_logo2016">
            <path d="M128.958,119.675 C128.958,121.417 127.533,122.842 125.792,122.842 L95.542,122.842 C93.8,122.842 92.375,121.417 92.375,119.675 L92.375,119.29 C92.375,117.548 93.8,116.123 95.542,116.123 L125.792,116.123 C127.533,116.123 128.958,117.548 128.958,119.29 L128.958,119.675 Z M120.5,165.342 C120.5,167.084 119.075,168.509 117.333,168.509 L77.167,168.509 C75.425,168.509 74,167.084 74,165.342 L74,164.957 C74,163.215 75.425,161.79 77.167,161.79 L117.333,161.79 C119.075,161.79 120.5,163.215 120.5,164.957 L120.5,165.342 Z M107.333,180.342 C107.333,182.084 105.908,183.509 104.167,183.509 L89.167,183.509 C87.425,183.509 86,182.084 86,180.342 L86,179.957 C86,178.215 87.425,176.79 89.167,176.79 L104.167,176.79 C105.908,176.79 107.333,178.215 107.333,179.957 L107.333,180.342 Z M58.5,153.342 C56.758,153.342 55.333,151.917 55.333,150.175 L55.333,149.79 C55.333,148.048 56.758,146.623 58.5,146.623 L92.625,146.623 C94.367,146.623 95.792,148.048 95.792,149.79 L95.792,150.175 C95.792,151.917 94.367,153.342 92.625,153.342 L58.5,153.342 Z M106.625,131.29 C108.367,131.29 109.792,132.715 109.792,134.457 L109.792,134.842 C109.792,136.584 108.367,138.009 106.625,138.009 L76.375,138.009 C74.633,138.009 73.208,136.584 73.208,134.842 L73.208,134.457 C73.208,132.715 74.633,131.29 76.375,131.29 L106.625,131.29 Z M44.542,122.842 C42.8,122.842 41.375,121.417 41.375,119.675 L41.375,119.29 C41.375,117.548 42.8,116.123 44.542,116.123 L84.5,116.123 C86.242,116.123 87.667,117.548 87.667,119.29 L87.667,119.675 C87.667,121.417 86.242,122.842 84.5,122.842 L44.542,122.842 Z M37.25,92.175 C35.508,92.175 34.083,90.75 34.083,89.009 L34.083,88.623 C34.083,86.882 35.508,85.457 37.25,85.457 L68.5,85.457 C70.242,85.457 71.667,86.882 71.667,88.623 L71.667,89.009 C71.667,90.75 70.242,92.175 68.5,92.175 L37.25,92.175 Z M31.333,61.868 C29.592,61.868 28.167,60.443 28.167,58.701 L28.167,58.316 C28.167,56.574 29.592,55.149 31.333,55.149 L61.943,55.149 C63.685,55.149 65.11,56.574 65.11,58.316 L65.11,58.701 C65.11,60.443 63.685,61.868 61.943,61.868 L31.333,61.868 Z M24.223,31.649 C22.482,31.649 21.057,30.224 21.057,28.483 L21.057,28.097 C21.057,26.356 22.482,24.931 24.223,24.931 L66.167,24.931 C67.908,24.931 69.333,26.356 69.333,28.097 L69.333,28.483 C69.333,30.224 67.908,31.649 66.167,31.649 L24.223,31.649 Z M55.223,12.597 C55.223,10.856 56.648,9.431 58.39,9.431 L86.5,9.431 C88.242,9.431 89.667,10.856 89.667,12.597 L89.667,12.983 C89.667,14.724 88.242,16.149 86.5,16.149 L58.39,16.149 C56.648,16.149 55.223,14.724 55.223,12.983 L55.223,12.597 Z M109.167,24.931 C110.908,24.931 112.333,26.356 112.333,28.097 L112.333,28.483 C112.333,30.224 110.908,31.649 109.167,31.649 L78.223,31.649 C76.482,31.649 75.057,30.224 75.057,28.483 L75.057,28.097 C75.057,26.356 76.482,24.931 78.223,24.931 L109.167,24.931 Z M44.057,46.649 C42.315,46.649 40.89,45.224 40.89,43.483 L40.89,43.097 C40.89,41.356 42.315,39.931 44.057,39.931 L93.667,39.931 C95.408,39.931 96.833,41.356 96.833,43.097 L96.833,43.483 C96.833,45.224 95.408,46.649 93.667,46.649 L44.057,46.649 Z M56.833,77.201 C55.092,77.201 53.667,75.776 53.667,74.035 L53.667,73.649 C53.667,71.908 55.092,70.483 56.833,70.483 L93,70.483 C94.742,70.483 96.167,71.908 96.167,73.649 L96.167,74.035 C96.167,75.776 94.742,77.201 93,77.201 L56.833,77.201 Z M99.5,103.79 L99.5,104.175 C99.5,105.917 98.075,107.342 96.333,107.342 L57.875,107.342 C56.133,107.342 54.708,105.917 54.708,104.175 L54.708,103.79 C54.708,102.048 56.133,100.623 57.875,100.623 L96.333,100.623 C98.075,100.623 99.5,102.048 99.5,103.79 Z M80.417,92.175 C78.675,92.175 77.25,90.75 77.25,89.009 L77.25,88.623 C77.25,86.882 78.675,85.457 80.417,85.457 L110.667,85.457 C112.408,85.457 113.833,86.882 113.833,88.623 L113.833,89.009 C113.833,90.75 112.408,92.175 110.667,92.175 L80.417,92.175 Z M123.667,58.316 L123.667,58.701 C123.667,60.443 122.242,61.868 120.5,61.868 L73.833,61.868 C72.092,61.868 70.667,60.443 70.667,58.701 L70.667,58.316 C70.667,56.574 72.092,55.149 73.833,55.149 L120.5,55.149 C122.242,55.149 123.667,56.574 123.667,58.316 Z M107.5,0.816 C103.34,0.536 99.333,0.316 96,0.316 C92.667,0.316 88.507,0.407 85,0.649 C74.221,1.393 55.997,3.448 36.716,9.431 L46.333,9.431 C48.075,9.431 49.5,10.856 49.5,12.597 L49.5,12.983 C49.5,14.724 48.075,16.149 46.333,16.149 L18.806,16.149 C13.204,18.658 7.679,21.561 2.384,24.931 L12.723,24.931 C14.465,24.931 15.89,26.356 15.89,28.097 L15.89,28.483 C15.89,30.224 14.465,31.649 12.723,31.649 L0.473,31.649 C0.695,33.825 1.004,36.623 1.421,39.944 C1.467,39.942 1.51,39.931 1.557,39.931 L32.167,39.931 C33.908,39.931 35.333,41.356 35.333,43.097 L35.333,43.483 C35.333,45.224 33.908,46.649 32.167,46.649 L2.319,46.649 C2.695,49.293 3.124,52.134 3.615,55.149 L19.833,55.149 C21.575,55.149 23,56.574 23,58.316 L23,58.701 C23,60.443 21.575,61.868 19.833,61.868 L4.763,61.868 C5.26,64.641 5.806,67.521 6.402,70.483 L45.333,70.483 C47.075,70.483 48.5,71.908 48.5,73.649 L48.5,74.035 C48.5,75.776 47.075,77.201 45.333,77.201 L7.814,77.201 C8.407,79.907 9.043,82.663 9.722,85.457 L25.75,85.457 C27.492,85.457 28.917,86.882 28.917,88.623 L28.917,89.009 C28.917,90.75 27.492,92.175 25.75,92.175 L11.427,92.175 C12.179,95.019 12.979,97.887 13.826,100.765 C14.108,100.682 14.4,100.623 14.708,100.623 L45.958,100.623 C47.7,100.623 49.125,102.048 49.125,103.79 L49.125,104.175 C49.125,105.917 47.7,107.342 45.958,107.342 L15.846,107.342 C16.786,110.277 17.78,113.208 18.829,116.123 L32.667,116.123 C34.408,116.123 35.833,117.548 35.833,119.29 L35.833,119.675 C35.833,121.417 34.408,122.842 32.667,122.842 L21.363,122.842 C22.495,125.708 23.682,128.545 24.931,131.335 C25.077,131.314 25.223,131.29 25.375,131.29 L65.333,131.29 C67.075,131.29 68.5,132.715 68.5,134.457 L68.5,134.842 C68.5,136.584 67.075,138.009 65.333,138.009 L28.085,138.009 C29.552,140.955 31.09,143.835 32.707,146.623 L47.333,146.623 C49.075,146.623 50.5,148.048 50.5,149.79 L50.5,150.175 C50.5,151.917 49.075,153.342 47.333,153.342 L36.876,153.342 C37.356,154.063 37.841,154.778 38.333,155.483 C38.333,155.483 40.149,157.929 43.541,161.79 L66,161.79 C67.742,161.79 69.167,163.215 69.167,164.957 L69.167,165.342 C69.167,167.084 67.742,168.509 66,168.509 L49.774,168.509 C52.284,171.075 55.179,173.881 58.426,176.79 L78.5,176.79 C80.242,176.79 81.667,178.215 81.667,179.957 L81.667,180.342 C81.667,182.084 80.242,183.509 78.5,183.509 L66.387,183.509 C69.486,185.968 72.803,188.429 76.333,190.816 L78.286,192.123 L94.333,192.123 C96.075,192.123 97.5,193.548 97.5,195.29 L97.5,195.675 C97.5,197.417 96.075,198.842 94.333,198.842 L88.324,198.842 L97,204.649 L117.667,191.149 C141.333,175.149 155.667,155.816 155.667,155.816 C188,109.483 194,26.816 194,26.816 C163.847,6.541 124.833,1.983 107.5,0.816 L107.5,0.816 Z" id="Fill-1" fill="#339044"></path>
            <path d="M65.11,58.701 L65.11,58.316 C65.11,56.574 63.685,55.149 61.943,55.149 L31.333,55.149 C29.592,55.149 28.167,56.574 28.167,58.316 L28.167,58.701 C28.167,60.443 29.592,61.868 31.333,61.868 L61.943,61.868 C63.685,61.868 65.11,60.443 65.11,58.701" id="Fill-2" fill="#FFFFFF"></path>
            <path d="M70.667,58.316 L70.667,58.701 C70.667,60.443 72.092,61.868 73.833,61.868 L120.5,61.868 C122.242,61.868 123.667,60.443 123.667,58.701 L123.667,58.316 C123.667,56.574 122.242,55.149 120.5,55.149 L73.833,55.149 C72.092,55.149 70.667,56.574 70.667,58.316" id="Fill-3" fill="#FFFFFF"></path>
            <path d="M23,58.701 L23,58.316 C23,56.574 21.575,55.149 19.833,55.149 L3.615,55.149 C3.966,57.307 4.348,59.551 4.763,61.868 L19.833,61.868 C21.575,61.868 23,60.443 23,58.701" id="Fill-4" fill="#FFFFFF"></path>
            <path d="M96.167,74.035 L96.167,73.649 C96.167,71.908 94.742,70.483 93,70.483 L56.833,70.483 C55.092,70.483 53.667,71.908 53.667,73.649 L53.667,74.035 C53.667,75.776 55.092,77.201 56.833,77.201 L93,77.201 C94.742,77.201 96.167,75.776 96.167,74.035" id="Fill-5" fill="#FFFFFF"></path>
            <path d="M48.5,74.035 L48.5,73.649 C48.5,71.908 47.075,70.483 45.333,70.483 L6.402,70.483 C6.844,72.68 7.314,74.922 7.814,77.201 L45.333,77.201 C47.075,77.201 48.5,75.776 48.5,74.035" id="Fill-6" fill="#FFFFFF"></path>
            <path d="M71.667,89.009 L71.667,88.623 C71.667,86.882 70.242,85.457 68.5,85.457 L37.25,85.457 C35.508,85.457 34.083,86.882 34.083,88.623 L34.083,89.009 C34.083,90.75 35.508,92.175 37.25,92.175 L68.5,92.175 C70.242,92.175 71.667,90.75 71.667,89.009" id="Fill-7" fill="#FFFFFF"></path>
            <path d="M113.833,89.009 L113.833,88.623 C113.833,86.882 112.408,85.457 110.667,85.457 L80.417,85.457 C78.675,85.457 77.25,86.882 77.25,88.623 L77.25,89.009 C77.25,90.75 78.675,92.175 80.417,92.175 L110.667,92.175 C112.408,92.175 113.833,90.75 113.833,89.009" id="Fill-8" fill="#FFFFFF"></path>
            <path d="M49.125,104.175 L49.125,103.79 C49.125,102.048 47.7,100.623 45.958,100.623 L14.708,100.623 C14.4,100.623 14.108,100.682 13.826,100.765 C14.471,102.954 15.143,105.148 15.846,107.342 L45.958,107.342 C47.7,107.342 49.125,105.917 49.125,104.175" id="Fill-9" fill="#FFFFFF"></path>
            <path d="M57.875,100.623 C56.133,100.623 54.708,102.048 54.708,103.79 L54.708,104.175 C54.708,105.917 56.133,107.342 57.875,107.342 L96.333,107.342 C98.075,107.342 99.5,105.917 99.5,104.175 L99.5,103.79 C99.5,102.048 98.075,100.623 96.333,100.623 L57.875,100.623" id="Fill-10" fill="#FFFFFF"></path>
            <path d="M28.917,89.009 L28.917,88.623 C28.917,86.882 27.492,85.457 25.75,85.457 L9.722,85.457 C10.262,87.676 10.829,89.917 11.427,92.175 L25.75,92.175 C27.492,92.175 28.917,90.75 28.917,89.009" id="Fill-11" fill="#FFFFFF"></path>
            <path d="M87.667,119.675 L87.667,119.29 C87.667,117.548 86.242,116.123 84.5,116.123 L44.542,116.123 C42.8,116.123 41.375,117.548 41.375,119.29 L41.375,119.675 C41.375,121.417 42.8,122.842 44.542,122.842 L84.5,122.842 C86.242,122.842 87.667,121.417 87.667,119.675" id="Fill-12" fill="#FFFFFF"></path>
            <path d="M125.792,116.123 L95.542,116.123 C93.8,116.123 92.375,117.548 92.375,119.29 L92.375,119.675 C92.375,121.417 93.8,122.842 95.542,122.842 L125.792,122.842 C127.533,122.842 128.958,121.417 128.958,119.675 L128.958,119.29 C128.958,117.548 127.533,116.123 125.792,116.123" id="Fill-13" fill="#FFFFFF"></path>
            <path d="M68.5,134.842 L68.5,134.457 C68.5,132.715 67.075,131.29 65.333,131.29 L25.375,131.29 C25.223,131.29 25.077,131.314 24.931,131.335 C25.941,133.593 26.994,135.819 28.085,138.009 L65.333,138.009 C67.075,138.009 68.5,136.584 68.5,134.842" id="Fill-14" fill="#FFFFFF"></path>
            <path d="M73.208,134.457 L73.208,134.842 C73.208,136.584 74.633,138.009 76.375,138.009 L106.625,138.009 C108.367,138.009 109.792,136.584 109.792,134.842 L109.792,134.457 C109.792,132.715 108.367,131.29 106.625,131.29 L76.375,131.29 C74.633,131.29 73.208,132.715 73.208,134.457" id="Fill-15" fill="#FFFFFF"></path>
            <path d="M50.5,150.175 L50.5,149.79 C50.5,148.048 49.075,146.623 47.333,146.623 L32.707,146.623 C34.044,148.927 35.432,151.171 36.876,153.342 L47.333,153.342 C49.075,153.342 50.5,151.917 50.5,150.175" id="Fill-16" fill="#FFFFFF"></path>
            <path d="M95.792,150.175 L95.792,149.79 C95.792,148.048 94.367,146.623 92.625,146.623 L58.5,146.623 C56.758,146.623 55.333,148.048 55.333,149.79 L55.333,150.175 C55.333,151.917 56.758,153.342 58.5,153.342 L92.625,153.342 C94.367,153.342 95.792,151.917 95.792,150.175" id="Fill-17" fill="#FFFFFF"></path>
            <path d="M69.167,165.342 L69.167,164.957 C69.167,163.215 67.742,161.79 66,161.79 L43.541,161.79 C45.235,163.719 47.317,165.996 49.774,168.509 L66,168.509 C67.742,168.509 69.167,167.084 69.167,165.342" id="Fill-18" fill="#FFFFFF"></path>
            <path d="M117.333,161.79 L77.167,161.79 C75.425,161.79 74,163.215 74,164.957 L74,165.342 C74,167.084 75.425,168.509 77.167,168.509 L117.333,168.509 C119.075,168.509 120.5,167.084 120.5,165.342 L120.5,164.957 C120.5,163.215 119.075,161.79 117.333,161.79" id="Fill-19" fill="#FFFFFF"></path>
            <path d="M81.667,180.342 L81.667,179.957 C81.667,178.215 80.242,176.79 78.5,176.79 L58.426,176.79 C60.881,178.99 63.54,181.248 66.387,183.509 L78.5,183.509 C80.242,183.509 81.667,182.084 81.667,180.342" id="Fill-20" fill="#FFFFFF"></path>
            <path d="M97.5,195.675 L97.5,195.29 C97.5,193.548 96.075,192.123 94.333,192.123 L78.286,192.123 L88.324,198.842 L94.333,198.842 C96.075,198.842 97.5,197.417 97.5,195.675" id="Fill-21" fill="#FFFFFF"></path>
            <path d="M104.167,176.79 L89.167,176.79 C87.425,176.79 86,178.215 86,179.957 L86,180.342 C86,182.084 87.425,183.509 89.167,183.509 L104.167,183.509 C105.908,183.509 107.333,182.084 107.333,180.342 L107.333,179.957 C107.333,178.215 105.908,176.79 104.167,176.79" id="Fill-22" fill="#FFFFFF"></path>
            <path d="M35.833,119.675 L35.833,119.29 C35.833,117.548 34.408,116.123 32.667,116.123 L18.829,116.123 C19.639,118.376 20.485,120.618 21.363,122.842 L32.667,122.842 C34.408,122.842 35.833,121.417 35.833,119.675" id="Fill-23" fill="#FFFFFF"></path>
            <path d="M35.333,43.483 L35.333,43.097 C35.333,41.356 33.908,39.931 32.167,39.931 L1.557,39.931 C1.51,39.931 1.467,39.942 1.421,39.944 C1.677,41.992 1.976,44.237 2.319,46.649 L32.167,46.649 C33.908,46.649 35.333,45.224 35.333,43.483" id="Fill-24" fill="#FFFFFF"></path>
            <path d="M96.833,43.483 L96.833,43.097 C96.833,41.356 95.408,39.931 93.667,39.931 L44.057,39.931 C42.315,39.931 40.89,41.356 40.89,43.097 L40.89,43.483 C40.89,45.224 42.315,46.649 44.057,46.649 L93.667,46.649 C95.408,46.649 96.833,45.224 96.833,43.483" id="Fill-25" fill="#FFFFFF"></path>
            <path d="M69.333,28.483 L69.333,28.097 C69.333,26.356 67.908,24.931 66.167,24.931 L24.223,24.931 C22.482,24.931 21.057,26.356 21.057,28.097 L21.057,28.483 C21.057,30.224 22.482,31.649 24.223,31.649 L66.167,31.649 C67.908,31.649 69.333,30.224 69.333,28.483" id="Fill-26" fill="#FFFFFF"></path>
            <path d="M75.057,28.097 L75.057,28.483 C75.057,30.224 76.482,31.649 78.223,31.649 L109.167,31.649 C110.908,31.649 112.333,30.224 112.333,28.483 L112.333,28.097 C112.333,26.356 110.908,24.931 109.167,24.931 L78.223,24.931 C76.482,24.931 75.057,26.356 75.057,28.097" id="Fill-27" fill="#FFFFFF"></path>
            <path d="M49.5,12.983 L49.5,12.597 C49.5,10.856 48.075,9.431 46.333,9.431 L36.716,9.431 C30.783,11.271 24.754,13.486 18.806,16.149 L46.333,16.149 C48.075,16.149 49.5,14.724 49.5,12.983" id="Fill-28" fill="#FFFFFF"></path>
            <g id="Group-32" transform="translate(0.000000, 9.000000)">
                <mask id="mask-2" fill="white">
                    <use xlink:href="#path-1"></use>
                </mask>
                <g id="Clip-30"></g>
                <path d="M58.39,7.149 L86.5,7.149 C88.242,7.149 89.667,5.724 89.667,3.983 L89.667,3.597 C89.667,1.856 88.242,0.431 86.5,0.431 L58.39,0.431 C56.648,0.431 55.223,1.856 55.223,3.597 L55.223,3.983 C55.223,5.724 56.648,7.149 58.39,7.149" id="Fill-29" fill="#FFFFFF" mask="url(#mask-2)"></path>
                <path d="M15.89,19.483 L15.89,19.097 C15.89,17.356 14.465,15.931 12.723,15.931 L2.384,15.931 C1.585,16.439 0.788,16.953 0,17.483 C0,17.483 0.136,19.345 0.473,22.649 L12.723,22.649 C14.465,22.649 15.89,21.224 15.89,19.483" id="Fill-31" fill="#FFFFFF" mask="url(#mask-2)"></path>
            </g>
            <path d="M257.626,117.673 C255.289,117.673 252.373,117.777 248.871,117.982 C245.369,118.189 242.002,118.774 238.777,119.734 C235.549,120.696 232.803,122.138 230.537,124.059 C228.271,125.984 227.138,128.662 227.138,132.093 C227.138,135.801 228.715,138.55 231.876,140.334 C235.033,142.12 238.33,143.011 241.764,143.011 C244.783,143.011 247.702,142.599 250.519,141.775 C253.332,140.951 255.84,139.787 258.038,138.273 C260.233,136.763 261.984,134.842 263.291,132.505 C264.595,130.171 265.248,127.426 265.248,124.265 L265.248,117.673 L257.626,117.673 Z M265.248,148.986 L264.836,148.986 C261.401,154.341 256.834,158.187 251.137,160.521 C245.437,162.855 239.427,164.023 233.112,164.023 C228.441,164.023 223.945,163.37 219.619,162.066 C215.293,160.763 211.482,158.806 208.186,156.195 C204.89,153.587 202.28,150.36 200.358,146.513 C198.433,142.67 197.474,138.206 197.474,133.123 C197.474,127.355 198.536,122.482 200.667,118.498 C202.794,114.515 205.679,111.22 209.319,108.609 C212.956,106.002 217.112,103.974 221.782,102.533 C226.449,101.09 231.29,100.029 236.305,99.339 C241.316,98.654 246.328,98.242 251.343,98.103 C256.354,97.968 260.989,97.897 265.248,97.897 C265.248,92.406 263.291,88.044 259.377,84.816 C255.463,81.591 250.828,79.975 245.472,79.975 C240.39,79.975 235.755,81.041 231.567,83.169 C227.376,85.299 223.636,88.215 220.34,91.923 L203.86,75.031 C209.628,69.675 216.355,65.658 224.048,62.981 C231.737,60.302 239.704,58.964 247.944,58.964 C257.008,58.964 264.456,60.096 270.295,62.362 C276.131,64.628 280.801,67.96 284.303,72.353 C287.805,76.75 290.241,82.138 291.616,88.525 C292.987,94.91 293.676,102.295 293.676,110.67 L293.676,161.551 L265.248,161.551 L265.248,148.986 L265.248,148.986 Z" id="Fill-33" fill="#464645"></path>
            <path d="M359.5,86.155 L332.309,86.155 L332.309,119.527 C332.309,122.276 332.443,124.781 332.721,127.046 C332.994,129.312 333.612,131.269 334.574,132.918 C335.533,134.566 337.011,135.837 339.004,136.728 C340.992,137.623 343.639,138.068 346.935,138.068 C348.582,138.068 350.745,137.896 353.424,137.552 C356.102,137.211 358.126,136.42 359.5,135.183 L359.5,160.933 C356.066,162.17 352.496,162.994 348.788,163.406 C345.08,163.818 341.44,164.023 337.87,164.023 C332.649,164.023 327.844,163.472 323.45,162.376 C319.054,161.278 315.211,159.527 311.914,157.123 C308.618,154.721 306.044,151.595 304.189,147.75 C302.336,143.906 301.408,139.236 301.408,133.742 L301.408,31.772 L332.309,31.772 L332.309,61.435 L359.5,61.435 L359.5,86.155" id="Fill-34" fill="#464645"></path>
            <path d="M427.93,90.893 C423.397,85.264 417.423,82.447 410.008,82.447 C407.396,82.447 404.857,83.065 402.386,84.301 C399.913,85.537 398.678,87.668 398.678,90.688 C398.678,93.159 399.945,94.981 402.488,96.147 C405.028,97.314 408.256,98.345 412.17,99.236 C416.084,100.13 420.271,101.09 424.736,102.121 C429.197,103.15 433.389,104.766 437.303,106.962 C441.217,109.16 444.441,112.146 446.984,115.922 C449.523,119.701 450.795,124.748 450.795,131.064 C450.795,137.52 449.386,142.841 446.572,147.029 C443.756,151.219 440.151,154.583 435.758,157.123 C431.36,159.666 426.417,161.449 420.926,162.478 C415.431,163.508 410.008,164.023 404.651,164.023 C397.647,164.023 390.572,163.025 383.434,161.037 C376.291,159.046 370.249,155.509 365.306,150.427 L384.052,129.621 C386.936,133.194 390.128,135.904 393.63,137.758 C397.133,139.613 401.217,140.539 405.888,140.539 C409.457,140.539 412.686,140.025 415.569,138.994 C418.453,137.964 419.896,136.078 419.896,133.33 C419.896,130.722 418.624,128.765 416.084,127.459 C413.542,126.155 410.316,125.057 406.402,124.162 C402.488,123.271 398.298,122.308 393.836,121.279 C389.372,120.248 385.185,118.703 381.271,116.643 C377.356,114.584 374.128,111.668 371.588,107.888 C369.046,104.113 367.777,99.066 367.777,92.747 C367.777,86.844 368.978,81.762 371.383,77.503 C373.783,73.248 376.944,69.746 380.858,66.997 C384.772,64.251 389.269,62.227 394.352,60.921 C399.431,59.617 404.58,58.964 409.802,58.964 C416.394,58.964 423.053,59.926 429.783,61.847 C436.511,63.772 442.211,67.203 446.881,72.147 L427.93,90.893" id="Fill-35" fill="#464645"></path>
            <path d="M318.514,187.724 C317.953,186.996 317.163,186.387 316.141,185.897 C315.118,185.407 314.09,185.162 313.054,185.162 C312.438,185.162 311.821,185.239 311.206,185.393 C310.59,185.546 310.03,185.785 309.526,186.107 C309.021,186.429 308.608,186.849 308.287,187.367 C307.965,187.885 307.804,188.508 307.804,189.236 C307.804,189.908 307.943,190.482 308.224,190.958 C308.504,191.434 308.889,191.839 309.379,192.175 C309.868,192.511 310.464,192.805 311.164,193.058 C311.863,193.31 312.634,193.562 313.474,193.814 C314.426,194.123 315.412,194.472 316.435,194.864 C317.457,195.256 318.395,195.774 319.249,196.418 C320.103,197.062 320.803,197.874 321.349,198.854 C321.895,199.835 322.168,201.052 322.168,202.507 C322.168,204.104 321.874,205.497 321.286,206.687 C320.698,207.878 319.914,208.864 318.934,209.648 C317.953,210.432 316.806,211.02 315.49,211.412 C314.174,211.803 312.787,212 311.332,212 C309.4,212 307.51,211.643 305.662,210.928 C303.813,210.214 302.302,209.158 301.126,207.757 L304.906,204.23 C305.634,205.238 306.606,206.036 307.825,206.624 C309.043,207.212 310.24,207.505 311.416,207.505 C312.031,207.505 312.661,207.429 313.306,207.275 C313.95,207.121 314.53,206.862 315.049,206.498 C315.566,206.134 315.986,205.678 316.309,205.132 C316.631,204.587 316.792,203.908 316.792,203.095 C316.792,202.312 316.609,201.661 316.246,201.143 C315.882,200.625 315.392,200.176 314.776,199.798 C314.16,199.42 313.432,199.092 312.592,198.812 C311.752,198.532 310.87,198.238 309.946,197.929 C309.05,197.65 308.153,197.314 307.258,196.921 C306.361,196.53 305.557,196.012 304.843,195.368 C304.129,194.724 303.548,193.933 303.1,192.995 C302.651,192.057 302.428,190.888 302.428,189.488 C302.428,187.976 302.743,186.673 303.373,185.582 C304.003,184.49 304.828,183.587 305.851,182.873 C306.873,182.159 308.035,181.628 309.337,181.277 C310.639,180.927 311.962,180.752 313.306,180.752 C314.818,180.752 316.351,181.018 317.905,181.549 C319.459,182.082 320.81,182.879 321.958,183.944 L318.514,187.724" id="Fill-36" fill="#464645"></path>
            <polyline id="Fill-37" fill="#464645" points="329.686 181.507 349.384 181.507 349.384 186.128 334.978 186.128 334.978 193.688 348.627 193.688 348.627 198.14 334.978 198.14 334.978 206.54 350.14 206.54 350.14 211.244 329.686 211.244 329.686 181.507"></polyline>
            <path d="M378.993,188.48 C378.21,187.416 377.187,186.639 375.927,186.149 C374.667,185.659 373.435,185.414 372.231,185.414 C370.69,185.414 369.292,185.694 368.032,186.254 C366.771,186.814 365.687,187.584 364.776,188.564 C363.866,189.545 363.165,190.692 362.677,192.007 C362.187,193.324 361.94,194.753 361.94,196.292 C361.94,197.916 362.179,199.4 362.655,200.744 C363.132,202.087 363.81,203.243 364.692,204.209 C365.575,205.174 366.632,205.924 367.864,206.456 C369.095,206.988 370.481,207.254 372.021,207.254 C373.618,207.254 375.03,206.939 376.263,206.309 C377.495,205.678 378.489,204.846 379.245,203.81 L383.487,206.792 C382.171,208.444 380.562,209.725 378.657,210.634 C376.753,211.545 374.526,212 371.979,212 C369.655,212 367.521,211.615 365.575,210.844 C363.628,210.075 361.956,208.997 360.556,207.611 C359.155,206.225 358.063,204.573 357.28,202.655 C356.495,200.737 356.104,198.616 356.104,196.292 C356.104,193.912 356.517,191.763 357.343,189.844 C358.167,187.927 359.302,186.295 360.745,184.952 C362.187,183.608 363.888,182.572 365.847,181.843 C367.808,181.116 369.935,180.752 372.231,180.752 C373.183,180.752 374.177,180.843 375.214,181.025 C376.249,181.208 377.243,181.487 378.196,181.865 C379.147,182.243 380.044,182.712 380.884,183.272 C381.724,183.833 382.437,184.504 383.024,185.288 L378.993,188.48" id="Fill-38" fill="#464645"></path>
            <path d="M412.677,200.324 C412.677,202.116 412.368,203.733 411.753,205.174 C411.137,206.617 410.297,207.841 409.232,208.85 C408.168,209.858 406.908,210.634 405.453,211.18 C403.997,211.727 402.414,212 400.707,212 C398.999,212 397.416,211.727 395.961,211.18 C394.505,210.634 393.237,209.858 392.16,208.85 C391.082,207.841 390.241,206.617 389.64,205.174 C389.037,203.733 388.737,202.116 388.737,200.324 L388.737,181.507 L394.029,181.507 L394.029,200.114 C394.029,200.982 394.141,201.843 394.365,202.697 C394.589,203.551 394.959,204.314 395.478,204.986 C395.996,205.658 396.682,206.204 397.536,206.624 C398.39,207.044 399.447,207.254 400.707,207.254 C401.967,207.254 403.023,207.044 403.878,206.624 C404.731,206.204 405.417,205.658 405.936,204.986 C406.454,204.314 406.824,203.551 407.049,202.697 C407.272,201.843 407.385,200.982 407.385,200.114 L407.385,181.507 L412.677,181.507 L412.677,200.324" id="Fill-39" fill="#464645"></path>
            <path d="M430.82,194.318 C431.577,194.318 432.333,194.262 433.089,194.15 C433.845,194.039 434.523,193.828 435.126,193.52 C435.728,193.212 436.225,192.771 436.617,192.197 C437.009,191.624 437.205,190.888 437.205,189.992 C437.205,189.18 437.022,188.515 436.659,187.997 C436.295,187.479 435.833,187.066 435.272,186.757 C434.712,186.45 434.076,186.24 433.361,186.128 C432.647,186.016 431.955,185.96 431.283,185.96 L426.495,185.96 L426.495,194.318 L430.82,194.318 Z M421.203,181.507 L431.535,181.507 C432.935,181.507 434.292,181.655 435.608,181.949 C436.925,182.243 438.094,182.726 439.116,183.398 C440.138,184.07 440.956,184.952 441.573,186.044 C442.188,187.135 442.497,188.466 442.497,190.034 C442.497,192.19 441.888,193.947 440.67,195.304 C439.452,196.664 437.793,197.58 435.692,198.055 L443.631,211.244 L437.247,211.244 L430.358,198.644 L426.495,198.644 L426.495,211.244 L421.203,211.244 L421.203,181.507 L421.203,181.507 Z" id="Fill-40" fill="#464645"></path>
            <polyline id="Fill-41" fill="#464645" points="449.847 181.507 469.544 181.507 469.544 186.128 455.139 186.128 455.139 193.688 468.788 193.688 468.788 198.14 455.139 198.14 455.139 206.54 470.301 206.54 470.301 211.244 449.847 211.244 449.847 181.507"></polyline>
            <path d="M487.394,206.624 C488.766,206.624 490.138,206.462 491.51,206.141 C492.882,205.819 494.12,205.273 495.227,204.503 C496.333,203.733 497.235,202.69 497.936,201.374 C498.636,200.058 498.986,198.392 498.986,196.376 C498.986,194.249 498.636,192.511 497.936,191.168 C497.235,189.824 496.333,188.774 495.227,188.018 C494.12,187.261 492.882,186.744 491.51,186.463 C490.138,186.184 488.766,186.044 487.394,186.044 L482.984,186.044 L482.984,206.624 L487.394,206.624 Z M477.692,181.507 L488.234,181.507 C490.166,181.507 492.111,181.759 494.072,182.263 C496.031,182.768 497.796,183.601 499.364,184.762 C500.932,185.925 502.206,187.451 503.186,189.34 C504.166,191.231 504.656,193.576 504.656,196.376 C504.656,198.98 504.166,201.22 503.186,203.095 C502.206,204.972 500.932,206.512 499.364,207.715 C497.796,208.92 496.031,209.809 494.072,210.382 C492.111,210.957 490.166,211.244 488.234,211.244 L477.692,211.244 L477.692,181.507 L477.692,181.507 Z" id="Fill-42" fill="#464645"></path>
            <path d="M512.453,182.457 C512.839,182.457 513.204,182.384 513.551,182.241 C513.897,182.096 514.071,181.803 514.071,181.359 C514.071,180.954 513.912,180.686 513.594,180.551 C513.277,180.416 512.944,180.348 512.598,180.348 L511.384,180.348 L511.384,182.457 L512.453,182.457 Z M510.055,179.221 L512.655,179.221 C513.002,179.221 513.338,179.26 513.666,179.337 C513.993,179.414 514.288,179.54 514.547,179.712 C514.807,179.886 515.014,180.107 515.168,180.377 C515.323,180.647 515.399,180.984 515.399,181.388 C515.399,181.928 515.245,182.366 514.937,182.703 C514.629,183.039 514.215,183.266 513.695,183.381 L515.689,186.617 L514.071,186.617 L512.338,183.526 L511.384,183.526 L511.384,186.617 L510.055,186.617 L510.055,179.221 Z M507.08,182.948 C507.08,183.699 507.225,184.412 507.513,185.085 C507.802,185.76 508.197,186.352 508.698,186.862 C509.199,187.373 509.786,187.772 510.46,188.061 C511.134,188.35 511.856,188.494 512.626,188.494 C513.396,188.494 514.118,188.35 514.793,188.061 C515.466,187.772 516.054,187.373 516.555,186.862 C517.056,186.352 517.451,185.76 517.739,185.085 C518.028,184.412 518.173,183.699 518.173,182.948 C518.173,182.178 518.028,181.456 517.739,180.782 C517.451,180.107 517.056,179.52 516.555,179.019 C516.054,178.519 515.466,178.124 514.793,177.835 C514.118,177.546 513.396,177.402 512.626,177.402 C511.856,177.402 511.134,177.546 510.46,177.835 C509.786,178.124 509.199,178.519 508.698,179.019 C508.197,179.52 507.802,180.107 507.513,180.782 C507.225,181.456 507.08,182.178 507.08,182.948 Z M506.04,182.948 C506.04,182.043 506.214,181.191 506.56,180.391 C506.907,179.592 507.378,178.9 507.976,178.312 C508.573,177.724 509.271,177.257 510.07,176.911 C510.869,176.564 511.721,176.391 512.626,176.391 C513.531,176.391 514.384,176.564 515.183,176.911 C515.982,177.257 516.68,177.724 517.277,178.312 C517.874,178.9 518.346,179.592 518.693,180.391 C519.039,181.191 519.213,182.043 519.213,182.948 C519.213,183.853 519.039,184.7 518.693,185.49 C518.346,186.28 517.874,186.968 517.277,187.556 C516.68,188.143 515.982,188.605 515.183,188.942 C514.384,189.279 513.531,189.447 512.626,189.447 C511.721,189.447 510.869,189.279 510.07,188.942 C509.271,188.605 508.573,188.143 507.976,187.556 C507.378,186.968 506.907,186.28 506.56,185.49 C506.214,184.7 506.04,183.853 506.04,182.948 L506.04,182.948 Z" id="Fill-43" fill="#464645"></path>
        </g>
    </g>
</svg>